<svg xmlns="http://www.w3.org/2000/svg" xmlns:xlink="http://www.w3.org/1999/xlink" width="32" height="32" viewBox="0 0 32 32">
  <defs>
    <clipPath id="clip-path">
      <rect id="Rectangle_2839" data-name="Rectangle 2839" width="32" height="32" transform="translate(1024 416)" fill="none"/>
    </clipPath>
  </defs>
  <g id="Group_6013" data-name="Group 6013" transform="translate(-1024 -416)">
    <g id="Group_6012" data-name="Group 6012" clip-path="url(#clip-path)">
      <g id="Group_6011" data-name="Group 6011">
        <path id="Path_8873" data-name="Path 8873" d="M1039.849,431.561a5.78,5.78,0,1,0-4.088-1.693A5.594,5.594,0,0,0,1039.849,431.561Zm-3.093-8.873a4.371,4.371,0,1,1-1.282,3.092A4.18,4.18,0,0,1,1036.756,422.688Z" fill="#606060"/>
        <path id="Path_8874" data-name="Path 8874" d="M1049.963,438.455a14.31,14.31,0,0,0-.194-1.517,12.094,12.094,0,0,0-.373-1.524,7.547,7.547,0,0,0-.627-1.422,5.393,5.393,0,0,0-.945-1.232,4.161,4.161,0,0,0-1.358-.853,4.693,4.693,0,0,0-1.733-.314,1.763,1.763,0,0,0-.94.4c-.281.183-.611.4-.979.631a5.572,5.572,0,0,1-1.266.557,4.905,4.905,0,0,1-3.1,0,5.583,5.583,0,0,1-1.265-.557c-.364-.233-.694-.445-.98-.632a1.754,1.754,0,0,0-.939-.4,4.693,4.693,0,0,0-1.733.314,4.172,4.172,0,0,0-1.358.853,5.366,5.366,0,0,0-.945,1.232,7.542,7.542,0,0,0-.626,1.422,11.928,11.928,0,0,0-.373,1.524,14.293,14.293,0,0,0-.195,1.517c-.032.459-.048.936-.048,1.418a3.988,3.988,0,0,0,1.184,3.015,4.262,4.262,0,0,0,3.05,1.112h11.556a4.262,4.262,0,0,0,3.05-1.112,3.987,3.987,0,0,0,1.184-3.016C1050.011,439.389,1049.995,438.912,1049.963,438.455Zm-2.1,3.414a2.871,2.871,0,0,1-2.08.725h-11.556a2.87,2.87,0,0,1-2.08-.725,2.6,2.6,0,0,1-.747-2c0-.45.015-.894.044-1.32a12.72,12.72,0,0,1,.176-1.366,10.633,10.633,0,0,1,.328-1.344,6.149,6.149,0,0,1,.51-1.157,3.974,3.974,0,0,1,.695-.91,2.749,2.749,0,0,1,.9-.561,3.215,3.215,0,0,1,1.107-.214c.05.026.137.076.28.169.289.188.622.4.99.638a7.011,7.011,0,0,0,1.59.711,6.333,6.333,0,0,0,3.963,0,6.97,6.97,0,0,0,1.59-.711c.377-.241.7-.45.99-.638.142-.093.23-.143.279-.169a3.217,3.217,0,0,1,1.108.214,2.748,2.748,0,0,1,.9.561,3.956,3.956,0,0,1,.7.911,6.069,6.069,0,0,1,.51,1.155,10.4,10.4,0,0,1,.328,1.345,12.785,12.785,0,0,1,.176,1.366h0c.03.425.045.869.045,1.32A2.6,2.6,0,0,1,1047.858,441.869Z" fill="#606060"/>
        <path id="Path_8875" data-name="Path 8875" d="M1046.034,436.071h-2.616a.726.726,0,0,0,0,1.453h2.616a.726.726,0,1,0,0-1.453Z" fill="#ee5294"/>
      </g>
    </g>
  </g>
</svg>
