<svg xmlns="http://www.w3.org/2000/svg" width="20.001" height="20" viewBox="0 0 20.001 20">
  <path id="Subtraction_14" data-name="Subtraction 14" d="M6207-5603a10.012,10.012,0,0,1-10-10,10.012,10.012,0,0,1,10-10,10.011,10.011,0,0,1,10,10A10.011,10.011,0,0,1,6207-5603Zm-5-10.385a.991.991,0,0,0-.383.076.994.994,0,0,0-.618.92.99.99,0,0,0,.293.706l2.952,2.959a.993.993,0,0,0,.706.292.993.993,0,0,0,.707-.292l4-3.991.025-.025.01-.014,0,0,.006-.007,2.519-2.559.025-.025a1,1,0,0,0-.064-1.373.993.993,0,0,0-.694-.28,1,1,0,0,0-.681.268l-2.835,2.88-3.016,3.014-2.247-2.256A.992.992,0,0,0,6202-5613.385Z" transform="translate(-6197 5623)" fill="#E9C869"/>
</svg>
