<svg xmlns="http://www.w3.org/2000/svg" xmlns:xlink="http://www.w3.org/1999/xlink" width="40" height="40" viewBox="0 0 40 40">
  <defs>
    <clipPath id="clip-path">
      <rect id="Rectangle_17122" data-name="Rectangle 17122" width="40" height="40" transform="translate(-15893 -10166)" fill="#999899" stroke="#707070" stroke-width="1"/>
    </clipPath>
    <clipPath id="clip-path-2">
      <path id="Path_15422" data-name="Path 15422" d="M495.37,588.88v3.75h6.25v-3.75Z" transform="translate(-495.37 -588.88)" fill="#999899"/>
    </clipPath>
    <clipPath id="clip-path-3">
      <rect id="Rectangle_17119" data-name="Rectangle 17119" width="656.25" height="1031.25" fill="#999899"/>
    </clipPath>
    <clipPath id="clip-path-4">
      <path id="Path_15423" data-name="Path 15423" d="M480.37,595.38h26.25v3.125a1.873,1.873,0,0,1-1.875,1.875h-.687a3.419,3.419,0,0,0,.063-.625,3.125,3.125,0,0,0-6.25,0,3.419,3.419,0,0,0,.062.625h-8.875a3.414,3.414,0,0,0,.063-.625,3.125,3.125,0,0,0-6.25,0,3.414,3.414,0,0,0,.063.625h-.687a1.873,1.873,0,0,1-1.875-1.875V595.38Zm18.75-1.25v-3.75h7.5v3.75Zm0-11.25h.662a4.371,4.371,0,0,1,3.45,1.688l2.462,3.162a4.4,4.4,0,0,1,.725,1.4h-7.313v-6.25Z" transform="translate(-480.37 -582.88)" fill="#999899"/>
    </clipPath>
    <clipPath id="clip-path-6">
      <path id="Path_15424" data-name="Path 15424" d="M502.835,600.422a.631.631,0,0,0,0,.25,1.888,1.888,0,1,1,0-.25Zm-15-.062a.631.631,0,0,0,0,.25,1.888,1.888,0,1,1,0-.25Zm10.075-16.7-.05,11.25-17.5-.075.05-10.625a4.369,4.369,0,0,1,4.388-4.35l8.75.037a4.377,4.377,0,0,1,4.313,3.763Z" transform="translate(-480.36 -579.86)" fill="#e9c869"/>
    </clipPath>
    <clipPath id="clip-path-7">
      <rect id="Rectangle_17121" data-name="Rectangle 17121" width="1031.25" height="656.25" transform="translate(0 1031.25) rotate(-89.754)" fill="#e9c869"/>
    </clipPath>
  </defs>
  <g id="Mask_Group_6833" data-name="Mask Group 6833" transform="translate(15893 10166)" clip-path="url(#clip-path)">
    <g id="Group_10526" data-name="Group 10526" transform="translate(-15886.75 -10157.25)">
      <g id="Group_10519" data-name="Group 10519" transform="translate(18.763 11.275)">
        <g id="Group_10518" data-name="Group 10518" clip-path="url(#clip-path-2)">
          <g id="Group_10517" data-name="Group 10517" transform="translate(-615 -46.25)" clip-path="url(#clip-path-3)">
            <rect id="XMLID_51_" width="18.75" height="16.25" transform="translate(608.75 40)" fill="#999899"/>
          </g>
        </g>
      </g>
      <g id="Group_10522" data-name="Group 10522" transform="translate(0.012 3.775)">
        <g id="Group_10521" data-name="Group 10521" clip-path="url(#clip-path-4)">
          <g id="Group_10520" data-name="Group 10520" transform="translate(-596.25 -38.75)" clip-path="url(#clip-path-3)">
            <rect id="XMLID_48_" width="38.75" height="30" transform="translate(590 32.5)" fill="#999899"/>
          </g>
        </g>
      </g>
      <g id="Group_10525" data-name="Group 10525">
        <g id="Group_10524" data-name="Group 10524" clip-path="url(#clip-path-6)">
          <g id="Group_10523" data-name="Group 10523" transform="translate(-40.215 622.767) rotate(-89.754)" clip-path="url(#clip-path-7)">
            <path id="XMLID_43_" d="M0,0H35V35H0Z" transform="translate(594.209 31.371)" fill="#e9c869"/>
          </g>
        </g>
      </g>
    </g>
  </g>
</svg>
