<svg xmlns="http://www.w3.org/2000/svg" width="118.674" height="99.539" viewBox="0 0 118.674 99.539">
  <g id="Group_10592" data-name="Group 10592" transform="translate(16280 19255)">
    <g id="Mask_Group_6811" data-name="Mask Group 6811" transform="translate(-18288.598 -19584.951)">
      <g id="Group_8987" data-name="Group 8987">
        <path id="Path_14034" data-name="Path 14034" d="M2008.6,399.8l83.447-69.844h35.226L2008.6,429.491Z" fill="#2153a3"/>
        <g id="PRE_ORDER" data-name="PRE ORDER" style="isolation: isolate">
          <path id="Path_15455" data-name="Path 15455" d="M-47.429.144a4.825,4.825,0,0,1-2.322-.558,4.165,4.165,0,0,1-1.632-1.548A4.265,4.265,0,0,1-51.977-4.2a4.265,4.265,0,0,1,.594-2.238,4.165,4.165,0,0,1,1.632-1.548,4.851,4.851,0,0,1,2.334-.558,4.9,4.9,0,0,1,1.974.384,3.954,3.954,0,0,1,1.482,1.1L-45.209-5.9a2.684,2.684,0,0,0-2.112-.984,2.8,2.8,0,0,0-1.392.342,2.431,2.431,0,0,0-.954.954A2.8,2.8,0,0,0-50.009-4.2a2.8,2.8,0,0,0,.342,1.392,2.431,2.431,0,0,0,.954.954,2.8,2.8,0,0,0,1.392.342,2.671,2.671,0,0,0,2.112-1l1.248,1.152A3.89,3.89,0,0,1-45.449-.24,4.939,4.939,0,0,1-47.429.144Zm8.665,0A4.9,4.9,0,0,1-41.122-.42a4.186,4.186,0,0,1-1.644-1.554A4.243,4.243,0,0,1-43.36-4.2a4.243,4.243,0,0,1,.594-2.226,4.186,4.186,0,0,1,1.644-1.554,4.9,4.9,0,0,1,2.358-.564,4.869,4.869,0,0,1,2.352.564,4.241,4.241,0,0,1,1.644,1.554,4.21,4.21,0,0,1,.6,2.226,4.21,4.21,0,0,1-.6,2.226A4.241,4.241,0,0,1-36.412-.42,4.869,4.869,0,0,1-38.764.144Zm0-1.656a2.666,2.666,0,0,0,1.344-.342,2.454,2.454,0,0,0,.942-.954A2.8,2.8,0,0,0-36.136-4.2a2.8,2.8,0,0,0-.342-1.392,2.454,2.454,0,0,0-.942-.954,2.666,2.666,0,0,0-1.344-.342,2.666,2.666,0,0,0-1.344.342,2.454,2.454,0,0,0-.942.954A2.8,2.8,0,0,0-41.392-4.2a2.8,2.8,0,0,0,.342,1.392,2.454,2.454,0,0,0,.942.954A2.666,2.666,0,0,0-38.764-1.512ZM-28.971.144a3.8,3.8,0,0,1-2.8-1,3.835,3.835,0,0,1-1-2.844V-8.4h1.944v4.632q0,2.256,1.872,2.256a1.755,1.755,0,0,0,1.392-.546,2.545,2.545,0,0,0,.48-1.71V-8.4h1.92v4.7a3.835,3.835,0,0,1-1,2.844A3.8,3.8,0,0,1-28.971.144ZM-17.894,0l-1.62-2.34H-21.3V0h-1.944V-8.4h3.636a4.667,4.667,0,0,1,1.938.372,2.88,2.88,0,0,1,1.266,1.056,2.909,2.909,0,0,1,.444,1.62,2.851,2.851,0,0,1-.45,1.614A2.853,2.853,0,0,1-17.69-2.7L-15.806,0Zm-.036-5.353a1.331,1.331,0,0,0-.456-1.086,2.042,2.042,0,0,0-1.332-.378H-21.3v2.928h1.584a2.019,2.019,0,0,0,1.332-.384A1.334,1.334,0,0,0-17.93-5.353Zm6.265,5.5a6.873,6.873,0,0,1-1.926-.27,4.518,4.518,0,0,1-1.494-.7l.66-1.464a4.479,4.479,0,0,0,1.284.636,4.823,4.823,0,0,0,1.488.24,2.377,2.377,0,0,0,1.224-.246.743.743,0,0,0,.4-.654.625.625,0,0,0-.234-.5,1.774,1.774,0,0,0-.6-.318q-.366-.12-.99-.264a13.687,13.687,0,0,1-1.572-.456,2.554,2.554,0,0,1-1.05-.732,1.977,1.977,0,0,1-.438-1.344,2.338,2.338,0,0,1,.4-1.326A2.664,2.664,0,0,1-13.327-8.2a4.873,4.873,0,0,1,1.95-.348,6.457,6.457,0,0,1,1.572.192A4.644,4.644,0,0,1-8.461-7.8l-.6,1.476a4.684,4.684,0,0,0-2.328-.66,2.183,2.183,0,0,0-1.206.264.806.806,0,0,0-.39.7.681.681,0,0,0,.45.642,7.066,7.066,0,0,0,1.374.414,13.687,13.687,0,0,1,1.572.456,2.6,2.6,0,0,1,1.05.72A1.931,1.931,0,0,1-8.1-2.46a2.294,2.294,0,0,1-.4,1.314A2.7,2.7,0,0,1-9.709-.2,4.917,4.917,0,0,1-11.665.144Zm11.4-1.7V0h-6.5V-8.4H-.42v1.56H-4.836v1.824h3.9V-3.5h-3.9V-1.56ZM8.749.144A4.9,4.9,0,0,1,6.391-.42,4.186,4.186,0,0,1,4.746-1.974,4.243,4.243,0,0,1,4.152-4.2a4.243,4.243,0,0,1,.594-2.226A4.186,4.186,0,0,1,6.391-7.981a4.9,4.9,0,0,1,2.358-.564,4.869,4.869,0,0,1,2.352.564,4.241,4.241,0,0,1,1.644,1.554,4.21,4.21,0,0,1,.6,2.226,4.21,4.21,0,0,1-.6,2.226A4.241,4.241,0,0,1,11.1-.42,4.869,4.869,0,0,1,8.749.144Zm0-1.656a2.666,2.666,0,0,0,1.344-.342,2.454,2.454,0,0,0,.942-.954A2.8,2.8,0,0,0,11.377-4.2a2.8,2.8,0,0,0-.342-1.392,2.454,2.454,0,0,0-.942-.954,2.666,2.666,0,0,0-1.344-.342A2.666,2.666,0,0,0,7.4-6.547a2.454,2.454,0,0,0-.942.954A2.8,2.8,0,0,0,6.121-4.2a2.8,2.8,0,0,0,.342,1.392,2.454,2.454,0,0,0,.942.954A2.666,2.666,0,0,0,8.749-1.512ZM22.514-8.4V0h-1.6L16.73-5.1V0H14.81V-8.4h1.608l4.176,5.1V-8.4Zm1.992,0h1.944v6.817h4.212V0H24.507Zm7.249,0H33.7V0H31.755ZM43.4-8.4V0H41.8L37.612-5.1V0h-1.92V-8.4H37.3l4.176,5.1V-8.4Zm8.5,6.841V0h-6.5V-8.4h6.349v1.56H47.321v1.824h3.9V-3.5h-3.9V-1.56Z" transform="matrix(0.766, -0.643, 0.643, 0.766, 2061.287, 375.999)" fill="#fff"/>
        </g>
      </g>
    </g>
  </g>
</svg>
