<svg xmlns="http://www.w3.org/2000/svg" xmlns:xlink="http://www.w3.org/1999/xlink" width="40" height="40" viewBox="0 0 40 40">
  <defs>
    <clipPath id="clip-path">
      <rect id="Rectangle_2396" data-name="Rectangle 2396" width="40" height="40" transform="translate(361 179)" fill="#ee5294" stroke="#707070" stroke-width="1"/>
    </clipPath>
  </defs>
  <g id="Mask_Group_84" data-name="Mask Group 84" transform="translate(-361 -179)" clip-path="url(#clip-path)">
    <path id="Path_8472" data-name="Path 8472" d="M13.275,0A13.275,13.275,0,1,0,26.55,13.275,13.283,13.283,0,0,0,13.275,0Zm5.85,13.9H13.288a.619.619,0,0,1-.625-.625v-8.2a.625.625,0,0,1,1.25,0V12.65h5.212a.619.619,0,0,1,.625.625A.627.627,0,0,1,19.125,13.9Z" transform="translate(367.749 185.999)" fill="#ee5294"/>
  </g>
</svg>
