<svg xmlns="http://www.w3.org/2000/svg" xmlns:xlink="http://www.w3.org/1999/xlink" width="40" height="40" viewBox="0 0 40 40">
  <defs>
    <clipPath id="clip-path">
      <rect id="Rectangle_2411" data-name="Rectangle 2411" width="40" height="40" transform="translate(-15893 -10166)" fill="#555559" stroke="#707070" stroke-width="1"/>
    </clipPath>
    <clipPath id="clip-path-2">
      <path id="Path_8504" data-name="Path 8504" d="M495.37,588.88v3.75h6.25v-3.75Z" transform="translate(-495.37 -588.88)" fill="#555559"/>
    </clipPath>
    <clipPath id="clip-path-3">
      <rect id="Rectangle_2408" data-name="Rectangle 2408" width="656.25" height="1031.25" fill="#555559"/>
    </clipPath>
    <clipPath id="clip-path-4">
      <path id="Path_8505" data-name="Path 8505" d="M480.37,595.38h26.25v3.125a1.873,1.873,0,0,1-1.875,1.875h-.687a3.419,3.419,0,0,0,.063-.625,3.125,3.125,0,0,0-6.25,0,3.419,3.419,0,0,0,.062.625h-8.875a3.414,3.414,0,0,0,.063-.625,3.125,3.125,0,0,0-6.25,0,3.414,3.414,0,0,0,.063.625h-.687a1.873,1.873,0,0,1-1.875-1.875V595.38Zm18.75-1.25v-3.75h7.5v3.75Zm0-11.25h.662a4.371,4.371,0,0,1,3.45,1.688l2.462,3.162a4.4,4.4,0,0,1,.725,1.4h-7.313v-6.25Z" transform="translate(-480.37 -582.88)" fill="#555559"/>
    </clipPath>
    <clipPath id="clip-path-6">
      <path id="Path_8506" data-name="Path 8506" d="M502.835,600.422a.631.631,0,0,0,0,.25,1.888,1.888,0,1,1,0-.25Zm-15-.062a.631.631,0,0,0,0,.25,1.888,1.888,0,1,1,0-.25Zm10.075-16.7-.05,11.25-17.5-.075.05-10.625a4.369,4.369,0,0,1,4.388-4.35l8.75.037a4.377,4.377,0,0,1,4.313,3.763Z" transform="translate(-480.36 -579.86)" fill="#555559"/>
    </clipPath>
    <clipPath id="clip-path-7">
      <rect id="Rectangle_2410" data-name="Rectangle 2410" width="1031.25" height="656.25" transform="translate(0 1031.25) rotate(-89.754)" fill="#555559"/>
    </clipPath>
  </defs>
  <g id="Mask_Group_93" data-name="Mask Group 93" transform="translate(15893 10166)" clip-path="url(#clip-path)">
    <g id="Group_4517" data-name="Group 4517" transform="translate(-15886.75 -10157.25)">
      <g id="Group_4510" data-name="Group 4510" transform="translate(18.763 11.275)">
        <g id="Group_4509" data-name="Group 4509" clip-path="url(#clip-path-2)">
          <g id="Group_4508" data-name="Group 4508" transform="translate(-615 -46.25)" clip-path="url(#clip-path-3)">
            <rect id="XMLID_51_" width="18.75" height="16.25" transform="translate(608.75 40)" fill="#555559"/>
          </g>
        </g>
      </g>
      <g id="Group_4513" data-name="Group 4513" transform="translate(0.012 3.775)">
        <g id="Group_4512" data-name="Group 4512" clip-path="url(#clip-path-4)">
          <g id="Group_4511" data-name="Group 4511" transform="translate(-596.25 -38.75)" clip-path="url(#clip-path-3)">
            <rect id="XMLID_48_" width="38.75" height="30" transform="translate(590 32.5)" fill="#555559"/>
          </g>
        </g>
      </g>
      <g id="Group_4516" data-name="Group 4516">
        <g id="Group_4515" data-name="Group 4515" clip-path="url(#clip-path-6)">
          <g id="Group_4514" data-name="Group 4514" transform="translate(-40.215 622.767) rotate(-89.754)" clip-path="url(#clip-path-7)">
            <rect id="XMLID_43_" width="35" height="35" transform="translate(594.209 31.371)" fill="#555559"/>
          </g>
        </g>
      </g>
    </g>
  </g>
</svg>
